{
  "accessors": [
    {
      "bufferView": 2,
      "componentType": 5126,
      "count": 29503,
      "max": [
        0.26899901032447815,
        0.24130399525165558,
        0.7416359782218933
      ],
      "min": [
        -0.3750529885292053,
        -0.322037011384964,
        0.23548699915409088
      ],
      "type": "VEC3"
    },
    {
      "bufferView": 2,
      "byteOffset": 354036,
      "componentType": 5126,
      "count": 29503,
      "max": [
        0.9999991059303284,
        0.9988837242126465,
        0.9999983906745911
      ],
      "min": [
        -0.9999598264694214,
        -0.9999467730522156,
        -0.9920949935913086
      ],
      "type": "VEC3"
    },
    {
      "bufferView": 1,
      "componentType": 5126,
      "count": 29503,
      "max": [
        0.9946420192718506,
        0.9986860156059265
      ],
      "min": [
        4.3000000005122274e-05,
        5.700000110664405e-05
      ],
      "type": "VEC2"
    },
    {
      "bufferView": 0,
      "componentType": 5125,
      "count": 154404,
      "type": "SCALAR"
    }
  ],
  "asset": {
    "extras": {
      "author": "the dragon 3d (https://sketchfab.com/thedragon3d)",
      "license": "CC-BY-4.0 (http://creativecommons.org/licenses/by/4.0/)",
      "source": "https://sketchfab.com/3d-models/piedad-la-virgen-con-el-cuerpo-de-cristo-d148fd762de948058c9241ca9ca9ad8f",
      "title": "Piedad - La Virgen con el cuerpo de Cristo"
    },
    "generator": "Sketchfab-17.15.0",
    "version": "2.0"
  },
  "bufferViews": [
    {
      "buffer": 0,
      "byteLength": 617616,
      "name": "floatBufferViews",
      "target": 34963
    },
    {
      "buffer": 0,
      "byteLength": 236024,
      "byteOffset": 617616,
      "byteStride": 8,
      "name": "floatBufferViews",
      "target": 34962
    },
    {
      "buffer": 0,
      "byteLength": 708072,
      "byteOffset": 853640,
      "byteStride": 12,
      "name": "floatBufferViews",
      "target": 34962
    }
  ],
  "buffers": [
    {
      "byteLength": 1561712,
      "uri": "scene.bin"
    }
  ],
  "images": [
    {
      "uri": "textures/material_0_baseColor.jpeg"
    }
  ],
  "materials": [
    {
      "doubleSided": true,
      "name": "material_0",
      "pbrMetallicRoughness": {
        "baseColorTexture": {
          "index": 0
        },
        "metallicFactor": 0.0
      }
    }
  ],
  "meshes": [
    {
      "name": "Object_0",
      "primitives": [
        {
          "attributes": {
            "NORMAL": 1,
            "POSITION": 0,
            "TEXCOORD_0": 2
          },
          "indices": 3,
          "material": 0,
          "mode": 4
        }
      ]
    }
  ],
  "nodes": [
    {
      "children": [
        1
      ],
      "matrix": [
        1.0,
        0.0,
        0.0,
        0.0,
        0.0,
        2.220446049250313e-16,
        -1.0,
        0.0,
        0.0,
        1.0,
        2.220446049250313e-16,
        0.0,
        0.0,
        0.0,
        0.0,
        1.0
      ],
      "name": "Sketchfab_model"
    },
    {
      "children": [
        2
      ],
      "name": "Pieta Toledo.obj.cleaner.materialmerger.gles"
    },
    {
      "mesh": 0,
      "name": "Object_2"
    }
  ],
  "samplers": [
    {
      "magFilter": 9729,
      "minFilter": 9987,
      "wrapS": 10497,
      "wrapT": 10497
    }
  ],
  "scene": 0,
  "scenes": [
    {
      "name": "Sketchfab_Scene",
      "nodes": [
        0
      ]
    }
  ],
  "textures": [
    {
      "sampler": 0,
      "source": 0
    }
  ]
}
